<svg width="88" height="88" viewBox="0 0 88 88" fill="none" xmlns="http://www.w3.org/2000/svg">
<g id="Next_Logo" clip-path="url(#clip0_257_246)">
<path id="Vector" d="M87.8744 0.125763H0.125977V87.8742H87.8744V0.125763Z" stroke="black" stroke-miterlimit="10"/>
<path id="Vector_2" d="M55.6634 52.381C48.0873 59.957 40.4333 67.4576 32.9603 75.1343C27.0494 81.2062 17.1241 81.8828 10.4309 75.8788C4.27846 70.3603 3.52136 60.0727 8.94433 53.8373C9.40211 53.3116 9.89259 52.8111 10.3856 52.3156C22.7357 39.9604 35.0883 27.6078 47.4409 15.2578C47.7226 14.976 47.9967 14.6792 48.3011 14.4252C49.194 13.6832 50.4743 13.7662 51.2867 14.5962C52.0539 15.381 52.1294 16.6537 51.4377 17.519C51.2088 17.8032 50.9321 18.0472 50.673 18.3063C38.1796 30.7997 25.6811 43.2882 13.1977 55.7917C9.25874 59.7357 8.61986 65.5309 11.5451 70.2773C15.2678 76.314 24.0235 77.4559 29.1723 72.5712C29.7986 71.9751 30.4023 71.3538 31.0135 70.7426C45.9065 55.8495 60.8046 40.959 75.6926 26.0609C79.6618 22.0893 78.8141 15.879 73.9772 13.3034C71.0267 11.7313 67.2614 12.3149 64.7612 14.7748C62.3188 17.1794 59.9092 19.6168 57.4869 22.039C48.0747 31.4487 38.66 40.8584 29.2528 50.2731C26.8557 52.6727 27.6329 56.413 30.7268 57.3461C32.3692 57.8417 33.813 57.404 35.0229 56.1941C37.8249 53.3946 40.6219 50.5951 43.4214 47.7956C49.6568 41.5602 55.8897 35.3248 62.1277 29.0919C63.1564 28.0631 64.2531 27.9046 65.2491 28.614C66.2905 29.356 66.4917 30.7947 65.6893 31.7832C65.5434 31.9643 65.3699 32.1228 65.2064 32.2863C56.1488 41.3439 47.0912 50.4065 38.0286 59.4615C35.1989 62.2887 30.9556 62.8245 27.565 60.8022C24.1618 58.7748 22.5319 54.7831 23.7619 50.985C24.1669 49.7298 24.8787 48.437 25.7993 47.5088C37.7746 35.4405 49.8027 23.4199 61.8459 11.4169C66.21 7.06797 73.1723 6.7938 78.0696 10.6799C82.8637 14.4856 84.1239 21.3699 80.9219 26.5917C80.3208 27.5726 79.5435 28.4706 78.7286 29.2906C71.0519 37.0025 63.3526 44.6892 55.6583 52.3835L55.6634 52.381Z" fill="#ED1E79"/>
</g>
<defs>
<clipPath id="clip0_257_246">
<rect width="88" height="88" fill="white"/>
</clipPath>
</defs>
</svg>
