<svg width="79" height="73" viewBox="0 0 79 73" fill="none" xmlns="http://www.w3.org/2000/svg">
<path d="M51.1634 44.8809C43.5873 52.457 35.9333 59.9576 28.4603 67.6343C22.5494 73.7062 12.6241 74.3828 5.93087 68.3788C-0.221536 62.8602 -0.978639 52.5727 4.44433 46.3373C4.90211 45.8116 5.39259 45.3111 5.88559 44.8155C18.2357 32.4604 30.5883 20.1078 42.9409 7.75774C43.2226 7.47602 43.4967 7.17922 43.8011 6.92517C44.694 6.18316 45.9743 6.26617 46.7867 7.09621C47.5539 7.88099 47.6294 9.15372 46.9377 10.019C46.7088 10.3032 46.4321 10.5472 46.173 10.8063C33.6796 23.2997 21.1811 35.7882 8.69769 48.2917C4.75874 52.2356 4.11986 58.0309 7.04514 62.7772C10.7678 68.8139 19.5235 69.9559 24.6723 65.0712C25.2986 64.4751 25.9023 63.8538 26.5135 63.2426C41.4065 48.3495 56.3046 33.459 71.1926 18.5609C75.1618 14.5893 74.3141 8.37901 69.4772 5.80335C66.5267 4.2313 62.7614 4.81485 60.2612 7.2748C57.8188 9.67942 55.4092 12.1167 52.9869 14.539C43.5747 23.9487 34.16 33.3584 24.7528 42.7731C22.3557 45.1727 23.1329 48.913 26.2268 49.8461C27.8692 50.3416 29.313 49.904 30.5229 48.6941C33.3249 45.8946 36.1219 43.0951 38.9214 40.2956C45.1568 34.0602 51.3897 27.8247 57.6277 21.5918C58.6564 20.5631 59.7531 20.4046 60.7491 21.1139C61.7905 21.8559 61.9917 23.2947 61.1893 24.2832C61.0434 24.4643 60.8699 24.6228 60.7064 24.7863C51.6488 33.8438 42.5912 42.9064 33.5286 51.9615C30.6989 54.7887 26.4556 55.3244 23.065 53.3021C19.6618 51.2748 18.0319 47.283 19.2619 43.4849C19.6669 42.2298 20.3787 40.937 21.2993 40.0088C33.2746 27.9404 45.3027 15.9199 57.3459 3.91689C61.71 -0.432055 68.6723 -0.706221 73.5696 3.1799C78.3637 6.98554 79.6239 13.8699 76.4219 19.0916C75.8208 20.0726 75.0435 20.9706 74.2286 21.7906C66.5519 29.5024 58.8526 37.1892 51.1583 44.8834L51.1634 44.8809Z" fill="#ED1E79"/>
</svg>
